<svg style="position: absolute; width: 0; height: 0; overflow: hidden;" aria-hidden="true" version="1.1" xmlns="http://www.w3.org/2000/svg" xmlns:xlink="http://www.w3.org/1999/xlink">
    <defs>
        <symbol id="icon-profile" viewBox="0 0 16 16">
            <path d="M8 0c1.0609 0 2.0783 0.4214 2.8284 1.1716C11.5786 1.9217 12 2.9391 12 4s-0.4214 2.0783-1.1716 2.8284C10.0783 7.5786 9.0609 8 8 8S5.9217 7.5786 5.1716 6.8284C4.4214 6.0783 4 5.0609 4 4s0.4214-2.0783 1.1716-2.8284C5.9217 0.4214 6.9391 0 8 0zM8 10c4.42 0 8 1.79 8 4v2H0v-2c0-2.21 3.58-4 8-4z" />
        </symbol>
        <symbol id="icon-burger-menu" viewBox="0 0 48 48" clip-rule="evenodd" fill-rule="evenodd" xmlns:xlink="http://www.w3.org/1999/xlink">
            <path d="M6 11c0-0.5523 0.4477-1 1-1h34c0.5523 0 1 0.4477 1 1s-0.4477 1-1 1H7c-0.5523 0-1-0.4477-1-1z" />
            <path d="M6 24c0-0.5523 0.4477-1 1-1h34c0.5523 0 1 0.4477 1 1s-0.4477 1-1 1H7c-0.5523 0-1-0.4477-1-1z" />
            <path d="M6 37c0-0.5523 0.4477-1 1-1h34c0.5523 0 1 0.4477 1 1s-0.4477 1-1 1H7c-0.5523 0-1-0.4477-1-1z" />
        </symbol>
        <symbol id="icon-close" viewBox="0 0 32 32" xmlns:xlink="http://www.w3.org/1999/xlink">
            <path d="M19.587 16.001l6.096 6.096c0.396 0.396 0.396 1.039 0 1.435l-2.151 2.151c-0.396 0.396-1.038 0.396-1.435 0L16 19.587 9.903 25.683c-0.396 0.396-1.038 0.396-1.434 0l-2.152-2.151c-0.396-0.396-0.396-1.038 0-1.435l6.097-6.096-6.097-6.097c-0.396-0.396-0.396-1.039 0-1.435L8.47 6.318c0.396-0.396 1.038-0.396 1.434 0L16 12.415l6.097-6.097c0.396-0.396 1.038-0.396 1.435 0l2.151 2.152c0.396 0.396 0.396 1.038 0 1.435z" />
        </symbol>
    </defs>
</svg>